# xmcd
#
# Track frame offsets:
#	150
#	14616
#	33619
#	48605
#	63464
#	77460
#	91161
#	109093
#	114611
#	124465
#	141237
#	154987
#	166590
#	180589
#	197536
#	213358
#	225946
#	241359
#
# Disc length: 3356 seconds
#
# Revision: 0
# Processed by: cddbd v1.5.2PL0 Copyright (c) Steve Scherf et al.
# Submitted via: EasyCDDAExtractor 16.0.6.1
#
DISCID=f00d1a12
DTITLE=Γλυκερία - Εκατόν σαράντα μεγ. επιτυχίες-Γλυκερία 1
DYEAR=2010
DGENRE=Ποικίλη
TTITLE0=Γλυκερία - Μέχρι να βρούμε ουρανό [Στέλ. Φωτιάδης-Σαράντης Αλιβιζάτος]
TTITLE1=Γλυκερία - Νύχτες μαγικές [Βασ. Τσιτσάνης]
TTITLE2=Γλυκερία - Καραμπιμπερίμ [Γιάννης Παπαϊωάννου]
TTITLE3=Γλυκερία - Συννεφιασμένη Κυριακή [Βασ. Τσιτσάνης]
TTITLE4=Γλυκερία - Γυφτοπούλα [Γιώργος Μπάτης]
TTITLE5=Γλυκερία - Μην κάνεις όνειρα τρελλά [Απόστολος Καλδάρας]
TTITLE6=Γλυκερία - Τα λερωμένα, τ' άπλυτα [Βασ. Τσιτσάνης]
TTITLE7=Γλυκερία - Το μονοπάτι [Γ.  Μουζάκης-Γ. κ Χ. Γιαννακόπουλοι/Α. Σακελλά
TTITLE7=ριος]
TTITLE8=Γλυκερία - Το τελευταίο τραμ [Μ. Σουγιούλ/Κ. Γιαννίδης-Χ. Γιαν/ος, Σακ
TTITLE8=ελλάριος]
TTITLE9=Γλυκερία - Στου Προφήτη Ηλία [Δ. Μούτσης-Γ. Παπαστεφάνου]
TTITLE10=Γλυκερία - Το σημάδι [Μάριος Τόκας-Σαρ. Αλιβιζάτος]
TTITLE11=Γλυκερία - Κάποια γιορτή [Στέλ. Φωτιάδης-Κυρ. Ντούμος]
TTITLE12=Γλυκερία - Έτσι απλά σ' αγαπώ [Λάκης Παπαδόπουλος-Κυρ. Ντούμος]
TTITLE13=Γλυκερία-Μητροπάνος Δημήτρης - Σε λατρεύω [Χρ. Νικολόπουλος-Λ. Παπαδό
TTITLE13=πουλος]
TTITLE14=Γλυκερία - Με λεηλάτησες [Στέλιος Φωτιάδης]
TTITLE15=Γλυκερία - Σάλα, σάλα [παραδ., σιασκ. Νίκος Χατζόπουλος]
TTITLE16=Γλυκερία - Μέσ' στου Αιγαίου τα νησιά [συρτός, Σταμ. Χατζηδάκης]
TTITLE17=Γλυκερία - Μικρό τρεχαντηράκι [παραδοσιακό]
EXTD=
EXTT0=
EXTT1=
EXTT2=
EXTT3=
EXTT4=
EXTT5=
EXTT6=
EXTT7=
EXTT8=
EXTT9=
EXTT10=
EXTT11=
EXTT12=
EXTT13=
EXTT14=
EXTT15=
EXTT16=
EXTT17=
PLAYORDER=
